<svg width="20" height="20" viewBox="0 0 20 20" fill="none" xmlns="http://www.w3.org/2000/svg">
<path d="M5.82754 10C5.82754 12.3008 7.69921 14.1725 10 14.1725C12.3009 14.1725 14.1725 12.3008 14.1725 10C14.1725 7.69917 12.3009 5.8275 10 5.8275C7.69921 5.8275 5.82754 7.69917 5.82754 10ZM10 7.49417C11.3817 7.49417 12.5059 8.61833 12.5059 10C12.5059 11.3817 11.3817 12.5058 10 12.5058C8.61837 12.5058 7.49421 11.3817 7.49421 10C7.49421 8.61833 8.61837 7.49417 10 7.49417ZM9.16504 15.8333H10.8317V18.3333H9.16504V15.8333ZM9.16504 1.66667H10.8317V4.16667H9.16504V1.66667ZM1.66504 9.16667H4.16504V10.8333H1.66504V9.16667ZM15.8317 9.16667H18.3317V10.8333H15.8317V9.16667ZM3.51587 15.3025L5.28254 13.5342L6.46171 14.7125L4.69504 16.4808L3.51587 15.3025ZM13.5334 5.28667L15.3017 3.51833L16.48 4.69667L14.7117 6.465L13.5334 5.28667ZM5.28504 6.46583L3.51671 4.6975L4.69587 3.51917L6.46254 5.2875L5.28504 6.46583ZM16.48 15.3033L15.3017 16.4817L13.5334 14.7133L14.7117 13.535L16.48 15.3033Z" fill="#2E2E2E"/>
</svg>
