<svg width="16" height="16" viewBox="0 0 16 16" fill="none" xmlns="http://www.w3.org/2000/svg">
<path d="M3.33333 14.6666H12.6667C13.402 14.6666 14 14.0686 14 13.3333V5.99992C14 5.82311 13.9298 5.65354 13.8047 5.52851C13.6797 5.40349 13.5101 5.33325 13.3333 5.33325H11.3333V4.66659C11.3333 2.82859 9.838 1.33325 8 1.33325C6.162 1.33325 4.66667 2.82859 4.66667 4.66659V5.33325H2.66667C2.48986 5.33325 2.32029 5.40349 2.19526 5.52851C2.07024 5.65354 2 5.82311 2 5.99992V13.3333C2 14.0686 2.598 14.6666 3.33333 14.6666ZM6 4.66659C6 3.56392 6.89733 2.66659 8 2.66659C9.10267 2.66659 10 3.56392 10 4.66659V5.33325H6V4.66659ZM3.33333 6.66659H4.66667V7.99992H6V6.66659H10V7.99992H11.3333V6.66659H12.6667L12.668 13.3333H3.33333V6.66659Z" fill="white"/>
</svg>
