<svg width="20" height="20" viewBox="0 0 20 20" fill="none" xmlns="http://www.w3.org/2000/svg">
<path d="M4.16667 18.3333H15.8333C16.7525 18.3333 17.5 17.5858 17.5 16.6667V7.5C17.5 7.27899 17.4122 7.06703 17.2559 6.91075C17.0996 6.75447 16.8877 6.66667 16.6667 6.66667H14.1667V5.83333C14.1667 3.53583 12.2975 1.66667 10 1.66667C7.7025 1.66667 5.83333 3.53583 5.83333 5.83333V6.66667H3.33333C3.11232 6.66667 2.90036 6.75447 2.74408 6.91075C2.5878 7.06703 2.5 7.27899 2.5 7.5V16.6667C2.5 17.5858 3.2475 18.3333 4.16667 18.3333ZM7.5 5.83333C7.5 4.455 8.62167 3.33333 10 3.33333C11.3783 3.33333 12.5 4.455 12.5 5.83333V6.66667H7.5V5.83333ZM4.16667 8.33333H5.83333V10H7.5V8.33333H12.5V10H14.1667V8.33333H15.8333L15.835 16.6667H4.16667V8.33333Z" fill="#2E2E2E"/>
</svg>
