<svg width="20" height="20" viewBox="0 0 20 20" fill="none" xmlns="http://www.w3.org/2000/svg">
<path d="M10.8333 6.66667H9.16663V10.8333H13.3333V9.16667H10.8333V6.66667Z" fill="#F2F2F2"/>
<path d="M16.6658 10C16.6658 7.53917 15.3224 5.39167 13.3333 4.23667V2.5C13.3333 2.27899 13.2455 2.06703 13.0892 1.91075C12.9329 1.75447 12.721 1.66667 12.4999 1.66667H7.49994C7.27893 1.66667 7.06696 1.75447 6.91068 1.91075C6.7544 2.06703 6.66661 2.27899 6.66661 2.5V4.23583C4.67744 5.39084 3.33411 7.53917 3.33411 10C3.33511 11.1916 3.65533 12.3611 4.26148 13.387C4.86762 14.4128 5.73754 15.2576 6.78077 15.8333H6.66661V17.5342C6.66661 17.7552 6.7544 17.9671 6.91068 18.1234C7.06696 18.2797 7.27893 18.3675 7.49994 18.3675H12.4999C12.721 18.3675 12.9329 18.2797 13.0892 18.1234C13.2455 17.9671 13.3333 17.7552 13.3333 17.5342V15.8333H13.2174C14.2612 15.258 15.1316 14.4134 15.738 13.3875C16.3445 12.3615 16.6649 11.1918 16.6658 10ZM9.99911 14.9992C8.6738 14.9976 7.40322 14.4704 6.46616 13.5332C5.5291 12.596 5.0021 11.3253 5.00077 10C5.0021 8.67469 5.5291 7.40403 6.46616 6.46681C7.40322 5.5296 8.6738 5.00238 9.99911 5.00083C12.7574 5.00083 14.9991 7.24333 14.9991 10C14.9978 11.3256 14.4705 12.5965 13.5331 13.5338C12.5957 14.471 11.3247 14.9981 9.99911 14.9992Z" fill="#F2F2F2"/>
</svg>
